<svg xmlns="http://www.w3.org/2000/svg"  viewBox="0 0 30 30" width="50px" height="50px"><path fill="#f5ce85" d="M3.5,15.5c0-4.883,2.503-9.177,6.292-11.682C4.471,5.047,0.5,9.805,0.5,15.5 c0,5.695,3.971,10.453,9.292,11.682C6.003,24.677,3.5,20.383,3.5,15.5z"/><path fill="#ba9b48" d="M12.378,28.292L9.68,27.669C3.98,26.354,0,21.349,0,15.5S3.98,4.646,9.68,3.331l2.698-0.623 l-2.311,1.527C6.269,6.747,4,10.958,4,15.5s2.269,8.753,6.067,11.265L12.378,28.292z M7.21,5.288C3.45,7.219,1,11.1,1,15.5 s2.45,8.281,6.21,10.212C4.535,23.022,3,19.373,3,15.5S4.535,7.978,7.21,5.288z"/><path fill="#8bb7f0" d="M28.398,10.5c-1.897-4.128-6.058-7-10.898-7s-9.001,2.872-10.898,7H28.398z"/><path fill="#4e7ab5" d="M29.179,11H5.821l0.326-0.709C8.184,5.862,12.64,3,17.5,3s9.316,2.862,11.353,7.291L29.179,11z M7.412,10h20.176C25.584,6.331,21.706,4,17.5,4S9.416,6.331,7.412,10z"/><path fill="#8bb7f0" d="M5.893,12.5c-0.167,0.648-0.286,1.314-0.343,2H29.45c-0.057-0.686-0.176-1.352-0.343-2H5.893z"/><path fill="#4e7ab5" d="M29.992,15H5.008l0.045-0.541c0.056-0.682,0.176-1.383,0.356-2.084L5.506,12h23.988l0.097,0.375 c0.181,0.701,0.301,1.402,0.356,2.084L29.992,15z M6.107,14h22.785c-0.045-0.33-0.104-0.664-0.18-1H6.287 C6.212,13.336,6.152,13.67,6.107,14z"/><g><path fill="#8bb7f0" d="M29.107,18.5c0.167-0.648,0.286-1.314,0.343-2H5.55c0.057,0.686,0.176,1.352,0.343,2H29.107z"/><path fill="#4e7ab5" d="M29.494,19H5.506l-0.097-0.375c-0.181-0.701-0.301-1.402-0.356-2.084L5.008,16h24.984l-0.045,0.541 c-0.056,0.682-0.176,1.383-0.356,2.084L29.494,19z M6.287,18h22.426c0.075-0.336,0.135-0.67,0.18-1H6.107 C6.152,17.33,6.212,17.664,6.287,18z"/></g><g><path fill="#8bb7f0" d="M6.602,20.5c1.897,4.128,6.058,7,10.898,7s9.001-2.872,10.898-7H6.602z"/><path fill="#4e7ab5" d="M17.5,28c-4.86,0-9.316-2.862-11.353-7.291L5.821,20h23.357l-0.326,0.709 C26.816,25.138,22.36,28,17.5,28z M7.412,21c2.004,3.669,5.882,6,10.088,6s8.084-2.331,10.088-6H7.412z"/></g><g><path fill="#b5ddf5" d="M9.763,21c1.722,2.418,4.542,4,7.737,4s6.014-1.582,7.737-4H9.763z"/></g></svg>