<svg xmlns="http://www.w3.org/2000/svg" height="800" width="1200" id="svg13124" version="1.1" viewBox="-5.743011 -2.307335 49.772762 13.84401"><g transform="translate(65.12417 2.5684)" id="layer1"><g transform="translate(.13229 -.1323)" id="g13455" stroke-width=".1112"><path id="path12" d="M-64.54478 2.8567c.06672-.03336.14457-.03336.21129-.06672-.1112-.12232-.23353-.23352-.32249-.37808-.03336-.04448-.01112-.0556.01112-.06672.02224 0 .01112-.04449.02224-.06673.04448-.01112.04448-.06672.06672-.10008 0-.01112 0-.04448.01112-.0556.01112-.01112.03336-.02224.0556 0 .08896.1112.18905.17792.28913.25577.12232.08896.25576.15568.35584.26688.01112 0 .04448.02224.04448 0 .01112-.1112.0556-.2224.10008-.31136.01112-.03336.02224-.07785.04448-.1112.03336-.06673.1112-.1112.1668-.15569.10009-.0556.21129 0 .28913-.08896.02224-.02224.06672 0 .08896 0 .06672.03336.15568.01112.21128.06672-.08896.20016-.08896.41145-.15568.62273-.01112.04448-.03336.1112-.01112.13344.10008.03336.35585-.01112.36697-.02224.13344 0 .25576 0 .3892.03336.10009.02224.1668.06672.25577.14456.14456.1112.14456.31137.12232.4893 0 .01111-.06672.07783-.08896.06671-.01112 0-.01112-.04448-.02224-.0556-.0556.04448-.15568.14456-.18904.14456-.01112 0-.07784-.06672-.1112-.08896-.1112-.07784-.24465-.0556-.36697-.04448-.14456.01112-.28912-.01112-.43369.0556.0556.10009.14457.15569.23353.23353.13344.13344.26688.23352.40032.36696.08896.10008.17793.1668.23353.278-.03336.02225 0 .03337-.02224.0556-.02224.01113-.02224-.03335-.04448-.03335s-.03336.03336-.03336.0556c.01112.01112-.02224.07784-.04448.07784-.01112.01112-.06672.04448-.08896.04448-.01112 0-.07784-.03336-.07784-.02224.02224.03336.04448.07784.03336.08896-.0556-.01112-.08896-.01112-.12233-.0556-.17792-.15568-.34472-.32248-.53376-.48929-.06672-.06672-.1112-.15568-.20017-.2224-.13344.31136-.2224.53377-.35584.84513-.03336.0556-.04448.20017-.07784.21129-.02224.01112-.10008-.10009-.14456-.18905 0-.18904.02224-.25576.03336-.45592v-.03336c.01112-.25577.08896-.47817.07784-.74506 0-.02224-.03336-.03336-.06672-.03336-.33361-.03336-.6561-.07784-.9897-.12232-.07784-.01112-.15568-.01112-.23352-.04448-.01112-.01112-.0556-.03336-.06672-.03336-.01112-.01112-.01112-.01112-.02224-.01112.13344-.13344.24464-.278.43368-.35584.08896 0 .2224-.0556.278-.07785z" fill="#f58025"/><path id="path14" d="M-61.44225 4.65817c-.02224-.01112-.01112-.03336-.01112-.03336.02224-.03336.06672-.03336.08896-.03336.08896-.02224.18905 0 .278-.02224.02225-.01112.03337-.03336.04449-.03336.06672-.03336.13344-.04448.21128-.06672.02224-.01112.06672-.03336.04448-.06672-.07784-.08896-.15568-.1668-.20016-.26689-.02224-.0556-.06672-.10008-.06672-.15568 0-.04448.0556-.0556.10008-.03336.20016.1112.3336.278.47817.45593.02224.03336.0556-.04448.06672-.07784.06672-.14457.1112-.31137.18904-.45593.02224-.04448.0556-.10008.10008-.1112.06672-.02224.1112-.06672.1668-.10008.04448-.02224.07784 0 .12232-.02224.02224-.01112.06672.03336.10009.02224.0556-.03336.10008-.01112.15568 0 .03336.02224.04448.0556.03336.08896-.0556.13344-.07784.26688-.1668.40032-.06672.10008-.1112.20017-.18905.30025 0 .01112-.01112.03336.01112.03336.04448.01112.10008 0 .13344.02224.13345.04448.26689.03336.41145.0556.06672.02224.06672.12232.13344.17792.03336.02224-.02224.0556-.06672.06672-.10008.03336-.20016-.01112-.30024.02224-.1668.03336-.3336 0-.48929.06672.0556.0556.1112.10008.15568.15569l.13345.20016c.04448.07784.06672.14456.08896.2224.02224.03336.01112.08896.01112.13344-.02224-.01112-.02224-.04448-.03336-.0556-.02224 0-.03336.03336-.06672.03336-.02224-.01112-.03336-.03336-.04448-.04448-.03336-.03336-.06672-.08896-.07784-.13344-.06672-.14456-.18905-.23352-.30025-.32249-.1112.23353-.18904.46705-.34472.68946-.01112.02224-.03336.02224-.06672.02224-.01112-.01112-.02224.02224-.03336.02224-.01112-.02224-.02224-.02224-.03336-.03336-.04448-.03336-.1112-.07785-.12233-.13345-.02224-.0556-.04448-.10008-.04448-.15568 0-.01112-.02224-.03336-.02224-.03336.02224-.03336.02224-.08896.03336-.1112.02224-.03336.06672-.06672.06672-.10008.04448-.1112.12233-.20017.14457-.31137-.21129-.03336-.4337-.02224-.64497-.10008-.04448-.02224-.10008-.03336-.14457-.06672-.02224-.07784-.01112-.10008-.03336-.1112z" fill="#003e74"/><path id="path16" d="M-61.18648 1.1998c.06672-.1668.17792-.26689.18904-.45593-.35585-.20016-.77841-.07784-1.0453-.54489-.06672-.10008 0-.56713.03336-.62273.07784-.1668.23353-.1668.37809-.0556.01112-.01112.12232.02224.14456.03336.14456-.02224.30024.03336.45593.06672.20016.02224.36696.10009.556.07785.01113-.01113.03337-.0556.03337-.1112-.04448-.27801-.1112-.52265-.17793-.81178-.03336-.06672-.02224-.15568-.04448-.2224-.01112-.1668-.12232-.42257-.02224-.50041.01112-.01112.03336.03336.04448.02224.03336-.02224.04448-.06672.07784-.0556.34473.23352.63385.58937.94522.9341.10008.10007.12232-.1668.20016-.25577.02224-.04448 0-.14456.02224-.17792.07784-.14457.08896-.32249.15568-.45593.12232-.1668.18904-.42257.36697-.48929.12232-.03336.25576.01112.36696.13344.02224.01112.07784 0 .1112.03336.12233.1112.2224.25577.35585.38921.04448.0556.06672.15568.04448.20016-.03336.18905-.20016.20017-.30025.3336-.18904.31137-.3892.62274-.57824.9341-.02224.04448-.07784.14456-.03336.18905.26688.26688.5004.54488.80065.75617.18904.12232.3892.1112.556.278.12233.14456.21129.30025.2669.48929-.67834.43369-1.44563-.278-2.16844-.26689-.0556.01112-.04448.08897-.04448.12233.03336.31136.08896.6116.12232.91185.01112.21128.12232.42257.15568.62273.01112.07784.07784.278-.02224.26688-.1112 0-.26688-.03336-.34472-.21128-.10008-.23352-.20017-.47817-.278-.73393-.01113-.07784-.04449-.14456-.01113-.21128.01112-.12233-.06672-.23353-.10008-.32249-.02224-.04448-.06672.02224-.10008.04448-.10008.13344-.20016.25577-.28912.41145-.1668.23352-.35585.37808-.57825.47817-.1668.06672-.41145.10008-.52265-.15569.0556-.01112.10008-.13344.06672-.1668-.25576-.3892.10008-.62273.21128-.90073z" fill="#7baed4"/><path d="M-53.71373 5.57002h-.62273V2.2451h.62273v.55601c.23352-.36696.52265-.6116 1.07865-.6116h.04449v.53376h-.04449c-.26688 0-.47816.08896-.6672.26689-.23353.2224-.40033.56712-.41145.85625v1.72362z" id="path20" fill="#003e74"/><path d="M-51.23393 5.63675c-.74505 0-1.07866-.4893-1.07866-.9341 0-.71169.60049-1.08978 2.1462-1.35666v-.14456c0-.36697-.22241-.55601-.6561-.55601-.57825 0-.7784.36697-.83401.47817l-.01112.04448-.56713-.24465.02224-.04448c.24465-.43368.78953-.71169 1.3789-.71169.64497 0 1.28994.31137 1.28994 1.01194v1.63466c0 .3336.03336.51153.07784.68945l.01112.0556h-.64497l-.04448-.40032c-.23352.24464-.60049.47817-1.08977.47817zm1.05641-1.8126c-1.02305.17793-1.52346.46705-1.52346.8785 0 .26689.278.45593.52265.45593.31136 0 .7228-.21129 1.00081-.51153z" id="path24" fill="#003e74"/><path d="M-47.38636 5.57002h-.75617l-1.06753-3.32493h.63385l.83401 2.61324.83401-2.61324h.56713z" id="path28" fill="#003e74"/><path d="M-41.84851 5.57002h-.63385V1.1442l.63385-.26689z" id="path32" fill="#003e74"/><path d="M-39.78016 5.63675c-.90073 0-1.50122-.68946-1.50122-1.72363 0-1.03418.60049-1.72363 1.50122-1.72363s1.50122.68945 1.50122 1.72363c0 1.03417-.60049 1.72363-1.50122 1.72363zm0-2.98021c-.54489 0-.8785.46705-.8785 1.25658 0 .78953.33361 1.25658.8785 1.25658.54489 0 .8785-.46705.8785-1.25658 0-.78953-.33361-1.25658-.8785-1.25658z" id="path36" fill="#003e74"/><path d="M-36.42187 5.63675c-.90073 0-1.50122-.68946-1.50122-1.72363 0-1.03418.60049-1.72363 1.50122-1.72363.64497 0 1.1009.30025 1.34554.90074l.02224.04448-.58937.17792-.01112-.03336c-.08896-.278-.30024-.6116-.76729-.6116-.556 0-.8785.45592-.8785 1.25657s.3225 1.25658.8785 1.25658c.43369 0 .64497-.14456.90074-.57825l.02224-.03336.53376.18904-.02224.04448c-.3892.6005-.78953.83402-1.4345.83402z" id="path40" fill="#003e74"/><path d="M-33.88647 5.57002h-.62273V2.2451h.62273z" id="path44" fill="#003e74"/><path id="path48" d="M-55.64864 5.63675c-.46705 0-.77841-.10009-.83401-.56713V2.72326h-.50041v-.46705h.5004v-.91185l.62274-.26688V2.2562h.80065l-.12232.46705h-.66721v2.26852c0 .08896.04448.17792.34472.17792.15568 0 .278-.01112.47817-.04448l.06672-.01112-.12232.46704h-.02224c-.17793.03336-.31137.0556-.54489.0556z" fill="#003e74"/><path d="M-30.49482 6.79324c-.1668 0-.36696-.02224-.4448-.03336l-.04448-.01112.14456-.46705h.07784c.0556.01112.12232.01112.20016.01112.31137 0 .68945-.07784.84513-.73393l-1.20097-3.32493h.58936l.01112.02224.8785 2.37972.7784-2.41308h.6561l-1.2121 3.59182c-.31136.85625-.9341.97857-1.27882.97857z" id="path54" fill="#003e74"/><path d="M-31.88484 5.63675c-.46705 0-.77841-.10009-.83401-.56713V2.71214h-.5004V2.2451h.5004v-.91185l.62273-.26688V2.2451h.80065l-.12232.46705h-.66721v2.26852c0 .08896.04448.17792.34472.17792.15568 0 .278-.01112.47817-.04448l.06672-.01112-.12232.46704h-.02224c-.17793.04449-.31137.06673-.54489.06673z" id="path60" fill="#003e74"/><path d="M-44.47287 5.63675c-.42257 0-.80065-.14457-1.08978-.41145-.3336-.31137-.5004-.7673-.5004-1.31218 0-1.03418.60048-1.72363 1.50122-1.72363.37808 0 .73393.12232.97857.35585.278.26688.43369.6672.43369 1.1565v.34472h-2.27963c.02224.64497.42256 1.12314.95633 1.12314.37809 0 .70057-.17792.88961-.51153l.02224-.04448.40033.3892-.02224.03337c-.40033.556-.64497.60048-1.28994.60049zm-.94521-2.06836h1.63466c-.01112-.56712-.30024-.91185-.7673-.91185-.5004 0-.81176.3336-.86736.91185z" id="path68" fill="#003e74"/><path id="path74" d="M-33.88647 1.76693h-.62273V1.1442h.62273z" fill="#003e74"/><path d="M-27.75926 2.48974c.02224-.04448.0556-.08896.08896-.12232.03336-.03337.07784-.06673.13344-.08897.04448-.02224.10009-.03336.15569-.03336s.1112.01112.15568.03336c.04448.02224.08896.04449.13344.08897.03336.03336.06672.07784.08896.12232.02224.04448.03336.10008.03336.15568 0 .0556-.01112.1112-.03336.15568-.02224.04448-.0556.08896-.08896.13344-.03336.03336-.07784.06673-.13344.08897-.04448.02224-.10008.03336-.15568.03336-.0556 0-.1112-.01112-.15569-.03336-.04448-.02224-.08896-.04449-.13344-.08897-.03336-.03336-.06672-.07784-.08896-.13344-.02224-.04448-.03336-.10008-.03336-.15568 0-.0556.01112-.1112.03336-.15568zm.06672.30024c.02224.04448.04448.07784.06672.1112.03336.03336.06672.0556.1112.07784.04448.02224.08896.02224.13345.02224.04448 0 .08896-.01112.13344-.02224.04448-.02224.07784-.04448.10008-.07784.03336-.03336.0556-.06672.06672-.1112.02224-.04448.02224-.08896.02224-.13344 0-.04448-.01112-.08896-.02224-.13344-.02224-.04448-.04448-.07784-.06672-.1112-.03336-.03336-.06672-.0556-.10008-.06672-.04448-.02224-.08896-.02224-.13344-.02224-.04448 0-.08896.01112-.13345.02224-.04448.02224-.07784.04448-.1112.06672-.03336.03336-.0556.06672-.06672.1112-.02224.04448-.02224.08896-.02224.13344 0 .04448.01112.08896.02224.13344zm.3336-.37808c.0556 0 .10009.01112.12233.03336.02224.02224.04448.0556.04448.10008 0 .04448-.01112.07784-.03336.08896-.02224.02224-.0556.03336-.08896.03336l.13344.21128h-.07784l-.13344-.20016h-.07784v.20016h-.07784V2.4119zm-.03335.21128h.04448c.01112 0 .03336 0 .04448-.01112.01112 0 .02224-.01112.02224-.02224.01112-.01112.01112-.02224.01112-.04448 0-.01112 0-.03336-.01112-.03336s-.01112-.01112-.02224-.02224c-.01112 0-.02224-.01112-.03336-.01112h-.13344v.14456z" id="path84" fill="#003e74"/><path d="M-27.75926 2.48974c.02224-.04448.0556-.08896.08896-.12232.03336-.03337.07784-.06673.13344-.08897.04448-.02224.10009-.03336.15569-.03336s.1112.01112.15568.03336c.04448.02224.08896.04449.13344.08897.03336.03336.06672.07784.08896.12232.02224.04448.03336.10008.03336.15568 0 .0556-.01112.1112-.03336.15568-.02224.04448-.0556.08896-.08896.13344-.03336.03336-.07784.06673-.13344.08897-.04448.02224-.10008.03336-.15568.03336-.0556 0-.1112-.01112-.15569-.03336-.04448-.02224-.08896-.04449-.13344-.08897-.03336-.03336-.06672-.07784-.08896-.13344-.02224-.04448-.03336-.10008-.03336-.15568 0-.0556.01112-.1112.03336-.15568zm.06672.30024c.02224.04448.04448.07784.06672.1112.03336.03336.06672.0556.1112.07784.04448.02224.08896.02224.13345.02224.04448 0 .08896-.01112.13344-.02224.04448-.02224.07784-.04448.10008-.07784.03336-.03336.0556-.06672.06672-.1112.02224-.04448.02224-.08896.02224-.13344 0-.04448-.01112-.08896-.02224-.13344-.02224-.04448-.04448-.07784-.06672-.1112-.03336-.03336-.06672-.0556-.10008-.06672-.04448-.02224-.08896-.02224-.13344-.02224-.04448 0-.08896.01112-.13345.02224-.04448.02224-.07784.04448-.1112.06672-.03336.03336-.0556.06672-.06672.1112-.02224.04448-.02224.08896-.02224.13344 0 .04448.01112.08896.02224.13344zm.3336-.37808c.0556 0 .10009.01112.12233.03336.02224.02224.04448.0556.04448.10008 0 .04448-.01112.07784-.03336.08896-.02224.02224-.0556.03336-.08896.03336l.13344.21128h-.07784l-.13344-.20016h-.07784v.20016h-.07784V2.4119zm-.03335.21128h.04448c.01112 0 .03336 0 .04448-.01112.01112 0 .02224-.01112.02224-.02224.01112-.01112.01112-.02224.01112-.04448 0-.01112 0-.03336-.01112-.03336s-.01112-.01112-.02224-.02224c-.01112 0-.02224-.01112-.03336-.01112h-.13344v.14456z" id="path86" fill="#003e74"/></g></g><style id="style13126"/></svg>